# xmcd CD database file
#
# Track frame offsets:
#	150
#	27721
#	62296
#	89925
#	120599
#	169424
#
# Disc length: 2577 seconds
#
# Revision: 0
# Processed by: cddbd v1.5.2PL0 Copyright (c) Steve Scherf et al.
# Submitted via: CDex 1.70beta2
#
DISCID=520a0f06
DTITLE=Jack DeJohnette's Special Edition - Album Album
DYEAR=1984
DGENRE=Jazz
TTITLE0=Ahmad the Terrible
TTITLE1=Monk's Mood
TTITLE2=festival
TTITLE3=New Orleans Strut
TTITLE4=Third World Anthem
TTITLE5=Zoot Suite
EXTD=YEAR: 1984
EXTT0=
EXTT1=
EXTT2=
EXTT3=
EXTT4=
EXTT5=
PLAYORDER=
